<?xml version="1.0" standalone="no"?>
<!DOCTYPE svg PUBLIC "-//W3C//DTD SVG 20010904//EN"
 "http://www.w3.org/TR/2001/REC-SVG-20010904/DTD/svg10.dtd">
<svg version="1.0" xmlns="http://www.w3.org/2000/svg"
 width="436.000000pt" height="436.000000pt" viewBox="0 0 436.000000 436.000000"
 preserveAspectRatio="xMidYMid meet">
<metadata>
Created by potrace 1.14, written by Peter Selinger 2001-2017
</metadata>
<g transform="translate(0.000000,436.000000) scale(0.100000,-0.100000)"
fill="#000000" stroke="none">
<path d="M205 4342 c-36 -11 -67 -33 -110 -77 -105 -104 -95 111 -95 -2090 0
-2175 -8 -1982 82 -2080 26 -29 68 -62 93 -74 l45 -21 1965 0 1965 0 45 21
c24 11 64 42 89 69 83 89 76 -114 76 2086 l0 1964 -21 45 c-12 25 -45 67 -74
93 -98 90 96 82 -2084 81 -1757 0 -1930 -2 -1976 -17z m2820 -710 l830 -480 0
-977 0 -977 -838 -484 -837 -484 -518 299 c-284 164 -661 382 -837 483 l-320
185 0 978 0 978 355 205 c195 113 571 330 835 483 264 153 485 276 490 274 6
-2 384 -219 840 -483z"/>
<path d="M1945 3823 c-126 -74 -472 -274 -767 -445 l-538 -311 0 -892 0 -892
757 -438 c416 -241 765 -440 775 -443 11 -2 306 163 783 438 l765 443 0 892 0
892 -767 443 c-423 244 -770 444 -773 445 -3 1 -108 -59 -235 -132z m985
-1048 l0 -145 -150 0 -150 0 0 145 0 145 150 0 150 0 0 -145z m-605 -16 c63
-44 115 -82 115 -85 0 -4 -146 -211 -161 -228 -6 -7 -88 46 -223 147 -18 13
-15 20 63 130 45 65 85 117 87 117 3 0 56 -36 119 -81z m-595 -434 l0 -145
-150 0 -150 0 0 145 0 145 150 0 150 0 0 -145z m895 -91 c48 -63 84 -119 79
-123 -5 -4 -57 -44 -116 -89 l-107 -80 -86 115 c-48 63 -83 119 -78 123 6 6
211 165 219 169 1 1 41 -51 89 -115z m-895 -284 l0 -150 -150 0 -150 0 0 150
0 150 150 0 150 0 0 -150z m370 0 l0 -150 -145 0 -145 0 0 150 0 150 145 0
145 0 0 -150z m-370 -375 l0 -145 -150 0 -150 0 0 145 0 145 150 0 150 0 0
-145z m370 0 l0 -145 -145 0 -145 0 0 145 0 145 145 0 145 0 0 -145z m380 0
l0 -145 -150 0 -150 0 0 145 0 145 150 0 150 0 0 -145z"/>
</g>
</svg>
